:SAMPLES-PER-SECOND 30
:FULLY-SPECIFIED
:DEGREES
96
root  -29.7549 34.8776 -2.27787 -166.414 -79.6592 160.438
RightUpLeg  -1.6696 -2.495 -18.962
RightLeg  98.6235 3.99464 -19.057
RightFoot  -6.90896 -0.0326711 -0.327206
RightToes  0.00048216 0.542163 -0.142577
Spine  18.7452 3.29419 -3.49715
Spine1  4.13174 4.62322 -8.08786
HEad  -4.56101 4.88214 0.0563764
LeftShoulder1  4.58949 -6.35583 -40.5155
LeftArm  -12.426 35.305 -12.2838
LeftForeArm  7.93998 -7.70297 -2.18733
LeftHand  -0.25398 0.0180481 5.50724
RightShoulder  5.59594 8.72152 39.6796
RightArm  -2.33773 -25.0583 34.3612
RightForeArm  53.7175 77.605 57.7383
RightHand  -1.94201 3.15703 -26.2065
LeftUpLeg  -40.5178 11.8746 -8.14333
LeftLeg  45.7222 4.94643 5.82927
LeftFoot  1.28457 -0.955252 8.41248
LeftToes  1.06246e-005 4.65856e-005 -8.18505e-006
97
root  -30.8185 34.5105 -2.30597 -154.713 -79.8158 146.995
RightUpLeg  -19.0778 0.363084 -14.9651
RightLeg  101.883 5.38005 -19.6273
RightFoot  -8.25222 0.0115615 -2.3636
RightToes  0.00048216 0.542163 -0.142577
Spine  27.1349 2.4488 -7.57727
Spine1  3.11133 2.40039 -7.50045
HEad  -7.9103 5.78126 0.0915155
LeftShoulder1  7.20368 -10.3294 -45.5447
LeftArm  -13.165 20.3905 -16.08
LeftForeArm  16.6854 -12.9772 -3.56101
LeftHand  -0.25398 0.0180481 5.50724
RightShoulder  6.14956 9.71437 40.379
RightArm  -5.15454 -19.3681 35.9352
RightForeArm  7.95349 65.7379 24.7833
RightHand  -2.94221 5.83482 -30.2324
LeftUpLeg  -38.9508 9.13325 -9.779
LeftLeg  50.563 6.19777 8.4395
LeftFoot  -5.16322 -0.341052 6.82973
LeftToes  1.06246e-005 4.65856e-005 -8.18505e-006
98
root  -31.9971 34.4641 -2.34473 -149.994 -81.6853 142.635
RightUpLeg  -34.3573 2.34279 -10.9116
RightLeg  94.3315 2.50581 -18.8841
RightFoot  -7.90265 0.00313437 -1.92403
RightToes  0.00048216 0.542163 -0.142577
Spine  32.5455 1.60484 -8.87457
Spine1  1.17425 0.140683 -5.18818
HEad  -9.57371 6.29072 0.153184
LeftShoulder1  7.92492 -11.7474 -45.2978
LeftArm  -13.1625 7.34555 -20.9675
LeftForeArm  31.0625 -28.5176 -4.44178
LeftHand  -0.25398 0.0180481 5.50724
RightShoulder  6.30735 10.3589 39.3922
RightArm  -1.41535 -17.2738 34.6488
RightForeArm  -5.30225 58.663 19.1411
RightHand  -3.44702 7.68827 -30.3281
LeftUpLeg  -38.1923 7.69151 -9.72639
LeftLeg  52.7896 5.63599 8.37351
LeftFoot  -8.24565 -0.0909654 5.37007
LeftToes  1.06246e-005 4.65856e-005 -8.18505e-006
99
root  -33.2585 34.5335 -2.43164 -128.422 -85.426 121.9
RightUpLeg  -43.0875 1.43344 -8.58837
RightLeg  78.3424 -2.88907 -17.7397
RightFoot  -6.5784 -0.113724 1.53798
RightToes  0.00048216 0.542163 -0.142577
Spine  35.8691 0.0220987 -8.1138
Spine1  0.777995 -2.283 -2.77216
HEad  -11.4738 6.34542 -0.13695
LeftShoulder1  7.56582 -11.8822 -42.7279
LeftArm  -16.5349 -3.37279 -26.6039
LeftForeArm  47.3665 -49.6299 -9.99587
LeftHand  -0.25398 0.0180481 5.50724
RightShoulder  6.38935 10.7974 38.6064
RightArm  2.84708 -18.1066 32.1116
RightForeArm  -3.94589 58.5347 19.1343
RightHand  -3.29652 7.77039 -28.8802
LeftUpLeg  -37.9629 6.86511 -9.25007
LeftLeg  54.7664 3.78623 6.24342
LeftFoot  -9.56449 -0.0354963 6.23099
LeftToes  1.06246e-005 4.65856e-005 -8.18505e-006
100
root  -34.7496 34.7247 -2.56261 -69.5971 -86.9645 63.2384
RightUpLeg  -45.1076 -1.59193 -7.78511
RightLeg  58.074 -8.69091 -15.2085
RightFoot  -4.20707 -0.314496 4.61414
RightToes  0.00048216 0.542163 -0.142577
Spine  37.4327 -1.52294 -6.88248
Spine1  1.88786 -3.86664 -1.76669
HEad  -11.9554 5.44136 -0.366117
LeftShoulder1  7.02676 -11.6027 -40.2476
LeftArm  -15.7266 -12.5877 -32.2526
LeftForeArm  55.0642 -65.7676 -18.8621
LeftHand  -0.25398 0.0180481 5.50724
RightShoulder  6.36387 10.9578 37.9596
RightArm  3.98134 -19.861 30.8772
RightForeArm  -0.332464 58.8614 19.0828
RightHand  -2.95844 6.84998 -27.9325
LeftUpLeg  -36.2394 6.2876 -9.07601
LeftLeg  56.5235 2.28723 4.2633
LeftFoot  -12.5032 0.145096 7.20726
LeftToes  1.06246e-005 4.65856e-005 -8.18505e-006
101
root  -36.6243 35.0337 -2.71747 -38.467 -84.808 32.289
RightUpLeg  -43.6502 -5.36817 -7.06579
RightLeg  38.7128 -11.285 -9.91596
RightFoot  -2.24804 -0.475672 5.80876
RightToes  0.00048216 0.542163 -0.142577
Spine  36.8092 -2.01475 -6.19819
Spine1  2.66146 -3.95787 -1.51859
HEad  -9.342 3.28593 0.0298264
LeftShoulder1  6.55195 -11.0613 -38.7956
LeftArm  -13.3352 -18.584 -37.9976
LeftForeArm  57.6212 -71.5362 -26.895
LeftHand  -0.25398 0.0180481 5.50724
RightShoulder  6.19609 10.707 37.5731
RightArm  3.97507 -21.8292 30.3934
RightForeArm  -3.50387 56.6228 17.6461
RightHand  -2.97444 6.7533 -28.2705
LeftUpLeg  -33.0686 5.6178 -9.16217
LeftLeg  57.2728 1.79325 3.56115
LeftFoot  -16.3519 0.375576 6.38971
LeftToes  1.06246e-005 4.65856e-005 -8.18505e-006
102
root  -38.7452 35.41 -2.88225 -37.7414 -83.1253 31.8928
RightUpLeg  -41.1146 -9.24846 -5.65915
RightLeg  24.9726 -9.11014 -4.82231
RightFoot  -2.05147 -0.526759 6.28831
RightToes  0.00048216 0.542163 -0.142577
Spine  34.1759 -1.57164 -5.50655
Spine1  2.91298 -2.96303 -1.32881
HEad  -5.44659 -0.00248624 0.324226
LeftShoulder1  6.29258 -10.5237 -38.6768
LeftArm  -11.0255 -19.3874 -42.6444
LeftForeArm  54.2599 -70.5469 -26.0338
LeftHand  -0.25398 0.0180481 5.50724
RightShoulder  5.97991 10.1253 37.8403
RightArm  3.9822 -24.1732 29.4029
RightForeArm  -8.49649 53.9414 16.235
RightHand  -3.23974 7.54858 -28.8848
LeftUpLeg  -29.0582 4.45165 -9.43954
LeftLeg  56.9024 2.23638 4.23423
LeftFoot  -19.2425 0.474606 5.15435
LeftToes  1.06246e-005 4.65856e-005 -8.18505e-006
103
root  -40.9048 35.8761 -3.0356 -37.9136 -81.7479 31.8823
RightUpLeg  -37.1861 -12.332 -4.71314
RightLeg  17.3366 -7.30747 -2.52875
RightFoot  -1.50456 -0.489505 5.58291
RightToes  0.00048216 0.542163 -0.142577
Spine  30.8794 -0.90846 -4.05848
Spine1  4.18817 -1.62299 -1.49568
HEad  -2.40001 -3.66838 -0.619067
LeftShoulder1  6.62858 -10.7697 -40.1586
LeftArm  -9.00975 -15.8891 -43.0445
LeftForeArm  51.6463 -67.6612 -21.8836
LeftHand  -0.25398 0.0180481 5.50724
RightShoulder  5.75276 9.5067 38.1641
RightArm  3.14289 -26.3932 29.0786
RightForeArm  -8.94468 51.7962 15.0153
RightHand  -3.38454 8.12118 -28.9016
LeftUpLeg  -23.7753 2.82286 -9.73638
LeftLeg  55.3247 3.30205 5.64006
LeftFoot  -21.7823 0.547498 4.56557
LeftToes  1.06246e-005 4.65856e-005 -8.18505e-006
104
root  -43.0356 36.3376 -3.16768 -36.2463 -80.768 29.5021
RightUpLeg  -32.6307 -13.6779 -5.07392
RightLeg  14.4516 -9.33311 -1.91365
RightFoot  2.50298 -0.370827 3.28026
RightToes  0.00048216 0.542163 -0.142577
Spine  27.8807 -0.465026 -1.54864
Spine1  5.99151 -0.344157 -2.14406
HEad  0.154415 -6.71288 -2.15008
LeftShoulder1  7.40523 -11.5722 -42.6827
LeftArm  -6.46563 -10.9309 -38.9856
LeftForeArm  49.4859 -63.8957 -18.0406
LeftHand  -0.25398 0.0180481 5.50724
RightShoulder  5.54906 9.1133 37.9387
RightArm  2.12208 -27.4874 30.269
RightForeArm  -7.06582 48.7573 13.3346
RightHand  -3.31246 8.09117 -28.378
LeftUpLeg  -17.9382 1.32065 -9.30202
LeftLeg  53.5663 3.83586 6.08192
LeftFoot  -24.4625 0.479651 2.94791
LeftToes  1.06246e-005 4.65856e-005 -8.18505e-006
105
root  -45.0461 36.688 -3.28645 -31.2063 -80.3932 24.0465
RightUpLeg  -30.6156 -15.939 -4.10735
RightLeg  16.1227 -9.30623 -2.07474
RightFoot  8.96549 -0.0372401 0.55845
RightToes  0.00048216 0.542163 -0.142577
Spine  25.7179 -0.388369 1.91518
Spine1  6.36429 0.744414 -3.12599
HEad  2.44571 -8.80368 -2.91067
LeftShoulder1  7.98835 -11.9559 -45.0337
LeftArm  -3.56492 -6.19633 -33.8675
LeftForeArm  45.0647 -57.4193 -13.6654
LeftHand  -0.25398 0.0180481 5.50724
RightShoulder  5.4795 9.03501 37.6698
RightArm  2.75113 -27.1404 31.4433
RightForeArm  -7.14702 44.6724 11.5441
RightHand  -3.17993 7.93047 -27.6125
LeftUpLeg  -14.2188 0.578593 -7.46697
LeftLeg  53.8744 2.54933 4.21352
LeftFoot  -24.4608 0.0897649 -0.622486
LeftToes  1.06246e-005 4.65856e-005 -8.18505e-006
106
root  -46.827 36.912 -3.4069 -21.8726 -80.202 14.7891
RightUpLeg  -31.1539 -19.2007 -1.46701
RightLeg  20.46 -5.66892 -2.44597
RightFoot  13.0158 0.516544 -2.00826
RightToes  0.00048216 0.542163 -0.142577
Spine  24.6005 -0.683005 5.98632
Spine1  5.41583 1.5312 -4.17575
HEad  3.18219 -10.1075 -2.51092
LeftShoulder1  8.28174 -11.9642 -46.7074
LeftArm  -1.67194 -2.05847 -29.9034
LeftForeArm  41.4435 -48.777 -9.69301
LeftHand  -0.25398 0.0180481 5.50724
RightShoulder  5.65079 9.29828 38.089
RightArm  4.42911 -25.4325 31.2392
RightForeArm  -8.09538 41.0019 10.225
RightHand  -2.96876 7.60295 -26.4767
LeftUpLeg  -14.3438 0.684568 -4.38968
LeftLeg  58.0142 0.430481 1.27105
LeftFoot  -18.6863 -0.135191 -3.8946
LeftToes  1.06246e-005 4.65856e-005 -8.18505e-006
107
root  -48.3539 37.0607 -3.53945 -11.2834 -79.5815 4.11971
RightUpLeg  -31.1648 -19.5967 0.0651819
RightLeg  24.8944 -4.98744 -2.78543
RightFoot  12.0105 1.04815 -4.7043
RightToes  0.00048216 0.542163 -0.142577
Spine  24.2484 -1.1491 9.85338
Spine1  5.08046 1.94062 -4.56108
HEad  1.90094 -10.7863 -1.66945
LeftShoulder1  8.71188 -12.3058 -48.095
LeftArm  -1.4492 1.21502 -26.9051
LeftForeArm  41.1962 -39.9184 -6.76076
LeftHand  -0.25398 0.0180481 5.50724
RightShoulder  5.96747 9.76427 38.8947
RightArm  4.63393 -22.1417 30.3532
RightForeArm  -7.39251 37.9209 9.16768
RightHand  -2.66057 6.90844 -25.1304
LeftUpLeg  -17.1682 0.990595 -1.19909
LeftLeg  64.54 -0.444557 -0.296268
LeftFoot  -8.35326 0.154949 -4.63294
LeftToes  1.06246e-005 4.65856e-005 -8.18505e-006
108
root  -49.6883 37.2105 -3.66467 -3.82451 -78.5086 -3.73692
RightUpLeg  -30.021 -19.4403 1.00168
RightLeg  28.1941 -6.17827 -3.81926
RightFoot  8.43633 1.18276 -6.41672
RightToes  0.00048216 0.542163 -0.142577
Spine  24.0624 -1.51504 12.6203
Spine1  5.70593 1.97047 -3.72866
HEad  0.214536 -11.1849 -1.39584
LeftShoulder1  9.2469 -12.9018 -49.2096
LeftArm  -1.43115 3.64368 -24.9126
LeftForeArm  40.8841 -30.6488 -4.37548
LeftHand  -0.25398 0.0180481 5.50724
RightShoulder  6.16002 10.0674 39.2908
RightArm  2.59677 -17.6053 30.0025
RightForeArm  -6.26757 34.6698 8.12871
RightHand  -2.45956 6.36307 -24.3423
LeftUpLeg  -20.6632 0.942436 0.992782
LeftLeg  70.4874 -0.314788 -0.0901827
LeftFoot  0.0653759 0.400649 -3.98698
LeftToes  1.06246e-005 4.65856e-005 -8.18505e-006
